<mxfile host="app.diagrams.net" agent="Mozilla/5.0 (Windows NT 10.0; Win64; x64) AppleWebKit/537.36 (KHTML, like Gecko) Chrome/130.0.0.0 Safari/537.36" version="24.8.4">
  <diagram name="Page-1" id="TQH9wQtYQM811fhHDUME">
    <mxGraphModel dx="1034" dy="458" grid="1" gridSize="10" guides="1" tooltips="1" connect="1" arrows="1" fold="1" page="1" pageScale="1" pageWidth="850" pageHeight="1100" math="0" shadow="0">
      <root>
        <mxCell id="0" />
        <mxCell id="1" parent="0" />
        <mxCell id="qOWdi3NvwAaLhNpTAvil-1" value="ToleranceTunnel" style="swimlane;fontStyle=1;align=center;verticalAlign=top;childLayout=stackLayout;horizontal=1;startSize=26;horizontalStack=0;resizeParent=1;resizeParentMax=0;resizeLast=0;collapsible=1;marginBottom=0;whiteSpace=wrap;html=1;fillColor=#dae8fc;strokeColor=#6c8ebf;" vertex="1" parent="1">
          <mxGeometry x="10" y="658" width="310" height="208" as="geometry" />
        </mxCell>
        <mxCell id="qOWdi3NvwAaLhNpTAvil-2" value="+ Id: string" style="text;strokeColor=none;fillColor=none;align=left;verticalAlign=top;spacingLeft=4;spacingRight=4;overflow=hidden;rotatable=0;points=[[0,0.5],[1,0.5]];portConstraint=eastwest;whiteSpace=wrap;html=1;" vertex="1" parent="qOWdi3NvwAaLhNpTAvil-1">
          <mxGeometry y="26" width="310" height="26" as="geometry" />
        </mxCell>
        <mxCell id="qOWdi3NvwAaLhNpTAvil-3" value="+ WellboreId: string" style="text;strokeColor=none;fillColor=none;align=left;verticalAlign=top;spacingLeft=4;spacingRight=4;overflow=hidden;rotatable=0;points=[[0,0.5],[1,0.5]];portConstraint=eastwest;whiteSpace=wrap;html=1;" vertex="1" parent="qOWdi3NvwAaLhNpTAvil-1">
          <mxGeometry y="52" width="310" height="26" as="geometry" />
        </mxCell>
        <mxCell id="qOWdi3NvwAaLhNpTAvil-4" value="+ WellId: string" style="text;strokeColor=none;fillColor=none;align=left;verticalAlign=top;spacingLeft=4;spacingRight=4;overflow=hidden;rotatable=0;points=[[0,0.5],[1,0.5]];portConstraint=eastwest;whiteSpace=wrap;html=1;" vertex="1" parent="qOWdi3NvwAaLhNpTAvil-1">
          <mxGeometry y="78" width="310" height="26" as="geometry" />
        </mxCell>
        <mxCell id="qOWdi3NvwAaLhNpTAvil-5" value="+ TrajectoryId: string" style="text;strokeColor=none;fillColor=none;align=left;verticalAlign=top;spacingLeft=4;spacingRight=4;overflow=hidden;rotatable=0;points=[[0,0.5],[1,0.5]];portConstraint=eastwest;whiteSpace=wrap;html=1;" vertex="1" parent="qOWdi3NvwAaLhNpTAvil-1">
          <mxGeometry y="104" width="310" height="26" as="geometry" />
        </mxCell>
        <mxCell id="qOWdi3NvwAaLhNpTAvil-6" value="+ DefaultTunnelRadius: float" style="text;strokeColor=none;fillColor=none;align=left;verticalAlign=top;spacingLeft=4;spacingRight=4;overflow=hidden;rotatable=0;points=[[0,0.5],[1,0.5]];portConstraint=eastwest;whiteSpace=wrap;html=1;" vertex="1" parent="qOWdi3NvwAaLhNpTAvil-1">
          <mxGeometry y="130" width="310" height="30" as="geometry" />
        </mxCell>
        <mxCell id="qOWdi3NvwAaLhNpTAvil-7" value="+ ToleranceLinesByDepth: DdpToleranceLineByDepth[]" style="text;strokeColor=none;fillColor=none;align=left;verticalAlign=top;spacingLeft=4;spacingRight=4;overflow=hidden;rotatable=0;points=[[0,0.5],[1,0.5]];portConstraint=eastwest;whiteSpace=wrap;html=1;" vertex="1" parent="qOWdi3NvwAaLhNpTAvil-1">
          <mxGeometry y="160" width="310" height="30" as="geometry" />
        </mxCell>
        <mxCell id="qOWdi3NvwAaLhNpTAvil-8" value="&#xa;&#xa;" style="line;strokeWidth=1;fillColor=none;align=left;verticalAlign=middle;spacingTop=-1;spacingLeft=3;spacingRight=3;rotatable=0;labelPosition=right;points=[];portConstraint=eastwest;strokeColor=inherit;" vertex="1" parent="qOWdi3NvwAaLhNpTAvil-1">
          <mxGeometry y="190" width="310" height="18" as="geometry" />
        </mxCell>
        <mxCell id="qOWdi3NvwAaLhNpTAvil-9" value="&lt;span style=&quot;text-align: left;&quot;&gt;DdpToleranceLineByDepth&lt;/span&gt;" style="swimlane;fontStyle=1;align=center;verticalAlign=top;childLayout=stackLayout;horizontal=1;startSize=26;horizontalStack=0;resizeParent=1;resizeParentMax=0;resizeLast=0;collapsible=1;marginBottom=0;whiteSpace=wrap;html=1;fillColor=#ffe6cc;strokeColor=#d79b00;" vertex="1" parent="1">
          <mxGeometry x="480" y="794" width="240" height="110" as="geometry" />
        </mxCell>
        <mxCell id="qOWdi3NvwAaLhNpTAvil-10" value="+ MdRange: MdRange" style="text;strokeColor=none;fillColor=none;align=left;verticalAlign=top;spacingLeft=4;spacingRight=4;overflow=hidden;rotatable=0;points=[[0,0.5],[1,0.5]];portConstraint=eastwest;whiteSpace=wrap;html=1;" vertex="1" parent="qOWdi3NvwAaLhNpTAvil-9">
          <mxGeometry y="26" width="240" height="26" as="geometry" />
        </mxCell>
        <mxCell id="qOWdi3NvwAaLhNpTAvil-11" value="+ ToleranceLines: DdpToleranceLine[]" style="text;strokeColor=none;fillColor=none;align=left;verticalAlign=top;spacingLeft=4;spacingRight=4;overflow=hidden;rotatable=0;points=[[0,0.5],[1,0.5]];portConstraint=eastwest;whiteSpace=wrap;html=1;" vertex="1" parent="qOWdi3NvwAaLhNpTAvil-9">
          <mxGeometry y="52" width="240" height="30" as="geometry" />
        </mxCell>
        <mxCell id="qOWdi3NvwAaLhNpTAvil-12" value="" style="line;strokeWidth=1;fillColor=none;align=left;verticalAlign=middle;spacingTop=-1;spacingLeft=3;spacingRight=3;rotatable=0;labelPosition=right;points=[];portConstraint=eastwest;strokeColor=inherit;" vertex="1" parent="qOWdi3NvwAaLhNpTAvil-9">
          <mxGeometry y="82" width="240" height="28" as="geometry" />
        </mxCell>
        <mxCell id="qOWdi3NvwAaLhNpTAvil-13" value="&lt;span style=&quot;text-align: left;&quot;&gt;MdRange&lt;/span&gt;" style="swimlane;fontStyle=1;align=center;verticalAlign=top;childLayout=stackLayout;horizontal=1;startSize=26;horizontalStack=0;resizeParent=1;resizeParentMax=0;resizeLast=0;collapsible=1;marginBottom=0;whiteSpace=wrap;html=1;fillColor=#d5e8d4;strokeColor=#82b366;" vertex="1" parent="1">
          <mxGeometry x="840" y="770" width="210" height="86" as="geometry" />
        </mxCell>
        <mxCell id="qOWdi3NvwAaLhNpTAvil-14" value="+ MdFrom: float" style="text;strokeColor=none;fillColor=none;align=left;verticalAlign=top;spacingLeft=4;spacingRight=4;overflow=hidden;rotatable=0;points=[[0,0.5],[1,0.5]];portConstraint=eastwest;whiteSpace=wrap;html=1;" vertex="1" parent="qOWdi3NvwAaLhNpTAvil-13">
          <mxGeometry y="26" width="210" height="26" as="geometry" />
        </mxCell>
        <mxCell id="qOWdi3NvwAaLhNpTAvil-15" value="+ MdTo: float" style="text;strokeColor=none;fillColor=none;align=left;verticalAlign=top;spacingLeft=4;spacingRight=4;overflow=hidden;rotatable=0;points=[[0,0.5],[1,0.5]];portConstraint=eastwest;whiteSpace=wrap;html=1;" vertex="1" parent="qOWdi3NvwAaLhNpTAvil-13">
          <mxGeometry y="52" width="210" height="26" as="geometry" />
        </mxCell>
        <mxCell id="qOWdi3NvwAaLhNpTAvil-16" value="" style="line;strokeWidth=1;fillColor=none;align=left;verticalAlign=middle;spacingTop=-1;spacingLeft=3;spacingRight=3;rotatable=0;labelPosition=right;points=[];portConstraint=eastwest;strokeColor=inherit;" vertex="1" parent="qOWdi3NvwAaLhNpTAvil-13">
          <mxGeometry y="78" width="210" height="8" as="geometry" />
        </mxCell>
        <mxCell id="qOWdi3NvwAaLhNpTAvil-17" value="&lt;span style=&quot;text-align: left;&quot;&gt;DdpToleranceLine&lt;/span&gt;" style="swimlane;fontStyle=1;align=center;verticalAlign=top;childLayout=stackLayout;horizontal=1;startSize=26;horizontalStack=0;resizeParent=1;resizeParentMax=0;resizeLast=0;collapsible=1;marginBottom=0;whiteSpace=wrap;html=1;fillColor=#f8cecc;strokeColor=#b85450;" vertex="1" parent="1">
          <mxGeometry x="840" y="870" width="210" height="86" as="geometry" />
        </mxCell>
        <mxCell id="qOWdi3NvwAaLhNpTAvil-18" value="+ Comment: string" style="text;strokeColor=none;fillColor=none;align=left;verticalAlign=top;spacingLeft=4;spacingRight=4;overflow=hidden;rotatable=0;points=[[0,0.5],[1,0.5]];portConstraint=eastwest;whiteSpace=wrap;html=1;" vertex="1" parent="qOWdi3NvwAaLhNpTAvil-17">
          <mxGeometry y="26" width="210" height="26" as="geometry" />
        </mxCell>
        <mxCell id="qOWdi3NvwAaLhNpTAvil-19" value="+ Points: DdpToleranceLinePoint[]" style="text;strokeColor=none;fillColor=none;align=left;verticalAlign=top;spacingLeft=4;spacingRight=4;overflow=hidden;rotatable=0;points=[[0,0.5],[1,0.5]];portConstraint=eastwest;whiteSpace=wrap;html=1;" vertex="1" parent="qOWdi3NvwAaLhNpTAvil-17">
          <mxGeometry y="52" width="210" height="26" as="geometry" />
        </mxCell>
        <mxCell id="qOWdi3NvwAaLhNpTAvil-20" value="" style="line;strokeWidth=1;fillColor=none;align=left;verticalAlign=middle;spacingTop=-1;spacingLeft=3;spacingRight=3;rotatable=0;labelPosition=right;points=[];portConstraint=eastwest;strokeColor=inherit;" vertex="1" parent="qOWdi3NvwAaLhNpTAvil-17">
          <mxGeometry y="78" width="210" height="8" as="geometry" />
        </mxCell>
        <mxCell id="qOWdi3NvwAaLhNpTAvil-21" value="" style="group" vertex="1" connectable="0" parent="1">
          <mxGeometry x="433" y="815" width="60" height="30" as="geometry" />
        </mxCell>
        <mxCell id="qOWdi3NvwAaLhNpTAvil-22" value="" style="endArrow=diamondThin;endFill=0;endSize=24;html=1;rounded=0;" edge="1" parent="qOWdi3NvwAaLhNpTAvil-21">
          <mxGeometry width="160" relative="1" as="geometry">
            <mxPoint x="45" y="24" as="sourcePoint" />
            <mxPoint x="-113" y="24" as="targetPoint" />
          </mxGeometry>
        </mxCell>
        <mxCell id="qOWdi3NvwAaLhNpTAvil-23" value="1..*" style="text;html=1;align=center;verticalAlign=middle;whiteSpace=wrap;rounded=0;" vertex="1" parent="qOWdi3NvwAaLhNpTAvil-21">
          <mxGeometry width="60" height="30" as="geometry" />
        </mxCell>
        <mxCell id="qOWdi3NvwAaLhNpTAvil-24" value="&lt;span style=&quot;text-align: left;&quot;&gt;DdpToleranceLinePoint&lt;/span&gt;" style="swimlane;fontStyle=1;align=center;verticalAlign=top;childLayout=stackLayout;horizontal=1;startSize=26;horizontalStack=0;resizeParent=1;resizeParentMax=0;resizeLast=0;collapsible=1;marginBottom=0;whiteSpace=wrap;html=1;fillColor=#e1d5e7;strokeColor=#9673a6;" vertex="1" parent="1">
          <mxGeometry x="1170" y="870" width="170" height="112" as="geometry" />
        </mxCell>
        <mxCell id="qOWdi3NvwAaLhNpTAvil-25" value="+ Radius: float" style="text;strokeColor=none;fillColor=none;align=left;verticalAlign=top;spacingLeft=4;spacingRight=4;overflow=hidden;rotatable=0;points=[[0,0.5],[1,0.5]];portConstraint=eastwest;whiteSpace=wrap;html=1;" vertex="1" parent="qOWdi3NvwAaLhNpTAvil-24">
          <mxGeometry y="26" width="170" height="26" as="geometry" />
        </mxCell>
        <mxCell id="qOWdi3NvwAaLhNpTAvil-26" value="+ Azimuth: float" style="text;strokeColor=none;fillColor=none;align=left;verticalAlign=top;spacingLeft=4;spacingRight=4;overflow=hidden;rotatable=0;points=[[0,0.5],[1,0.5]];portConstraint=eastwest;whiteSpace=wrap;html=1;" vertex="1" parent="qOWdi3NvwAaLhNpTAvil-24">
          <mxGeometry y="52" width="170" height="26" as="geometry" />
        </mxCell>
        <mxCell id="qOWdi3NvwAaLhNpTAvil-27" value="+ IsManualInput: bool" style="text;strokeColor=none;fillColor=none;align=left;verticalAlign=top;spacingLeft=4;spacingRight=4;overflow=hidden;rotatable=0;points=[[0,0.5],[1,0.5]];portConstraint=eastwest;whiteSpace=wrap;html=1;" vertex="1" parent="qOWdi3NvwAaLhNpTAvil-24">
          <mxGeometry y="78" width="170" height="26" as="geometry" />
        </mxCell>
        <mxCell id="qOWdi3NvwAaLhNpTAvil-28" value="" style="line;strokeWidth=1;fillColor=none;align=left;verticalAlign=middle;spacingTop=-1;spacingLeft=3;spacingRight=3;rotatable=0;labelPosition=right;points=[];portConstraint=eastwest;strokeColor=inherit;" vertex="1" parent="qOWdi3NvwAaLhNpTAvil-24">
          <mxGeometry y="104" width="170" height="8" as="geometry" />
        </mxCell>
        <mxCell id="qOWdi3NvwAaLhNpTAvil-29" value="" style="endArrow=diamondThin;endFill=0;endSize=24;html=1;rounded=0;" edge="1" parent="1">
          <mxGeometry width="160" relative="1" as="geometry">
            <mxPoint x="840" y="829" as="sourcePoint" />
            <mxPoint x="720" y="829.41" as="targetPoint" />
          </mxGeometry>
        </mxCell>
        <mxCell id="qOWdi3NvwAaLhNpTAvil-30" value="" style="endArrow=diamondThin;endFill=0;endSize=24;html=1;rounded=0;" edge="1" parent="1">
          <mxGeometry width="160" relative="1" as="geometry">
            <mxPoint x="840" y="880" as="sourcePoint" />
            <mxPoint x="720" y="880.41" as="targetPoint" />
          </mxGeometry>
        </mxCell>
        <mxCell id="qOWdi3NvwAaLhNpTAvil-31" value="1" style="text;html=1;align=center;verticalAlign=middle;whiteSpace=wrap;rounded=0;" vertex="1" parent="1">
          <mxGeometry x="798" y="806" width="60" height="30" as="geometry" />
        </mxCell>
        <mxCell id="qOWdi3NvwAaLhNpTAvil-32" value="1..*" style="text;html=1;align=center;verticalAlign=middle;whiteSpace=wrap;rounded=0;" vertex="1" parent="1">
          <mxGeometry x="798" y="856" width="60" height="30" as="geometry" />
        </mxCell>
        <mxCell id="qOWdi3NvwAaLhNpTAvil-33" value="" style="endArrow=diamondThin;endFill=0;endSize=24;html=1;rounded=0;" edge="1" parent="1">
          <mxGeometry width="160" relative="1" as="geometry">
            <mxPoint x="1170" y="938" as="sourcePoint" />
            <mxPoint x="1050" y="938.41" as="targetPoint" />
          </mxGeometry>
        </mxCell>
        <mxCell id="qOWdi3NvwAaLhNpTAvil-34" value="1..*" style="text;html=1;align=center;verticalAlign=middle;whiteSpace=wrap;rounded=0;" vertex="1" parent="1">
          <mxGeometry x="1120" y="911" width="60" height="30" as="geometry" />
        </mxCell>
      </root>
    </mxGraphModel>
  </diagram>
</mxfile>
